{
	"asset":{
		"generator":"Khronos glTF Blender I/O v4.3.47",
		"version":"2.0"
	},
	"scene":0,
	"scenes":[
		{
			"name":"Scene",
			"nodes":[
				0
			]
		}
	],
	"nodes":[
		{
			"mesh":0,
			"name":"chair_"
		}
	],
	"meshes":[
		{
			"name":"Cube.001",
			"primitives":[
				{
					"attributes":{
						"POSITION":0,
						"NORMAL":1,
						"TEXCOORD_0":2
					},
					"indices":3
				}
			]
		}
	],
	"accessors":[
		{
			"bufferView":0,
			"componentType":5126,
			"count":104010,
			"max":[
				0.8313814997673035,
				0.8091219663619995,
				0.7900806665420532
			],
			"min":[
				-0.8313814997673035,
				-0.8091219067573547,
				-0.7900806665420532
			],
			"type":"VEC3"
		},
		{
			"bufferView":1,
			"componentType":5126,
			"count":104010,
			"type":"VEC3"
		},
		{
			"bufferView":2,
			"componentType":5126,
			"count":104010,
			"type":"VEC2"
		},
		{
			"bufferView":3,
			"componentType":5125,
			"count":618672,
			"type":"SCALAR"
		}
	],
	"bufferViews":[
		{
			"buffer":0,
			"byteLength":1248120,
			"byteOffset":0,
			"target":34962
		},
		{
			"buffer":0,
			"byteLength":1248120,
			"byteOffset":1248120,
			"target":34962
		},
		{
			"buffer":0,
			"byteLength":832080,
			"byteOffset":2496240,
			"target":34962
		},
		{
			"buffer":0,
			"byteLength":2474688,
			"byteOffset":3328320,
			"target":34963
		}
	],
	"buffers":[
		{
			"byteLength":5803008,
			"uri":"chair_puff.bin"
		}
	]
}
